0
SECTION
2
HEADER
9
$INSUNITS
70
4
0
ENDSEC
0
SECTION
2
TABLES
0
TABLE
2
LTYPE
0
LTYPE
72
65
70
64
2
CONTINUOUS
3
______
73
0
40
0
0
ENDTAB
0
TABLE
2
LAYER
0
ENDTAB
0
ENDSEC
0
SECTION
2
ENTITIES
0
LINE
8
0
10
-9
20
-12.1035714
11
-9
21
41.5
0
LINE
8
0
10
7.5
20
43
11
-7.5
21
43
0
LINE
8
0
10
25.5
20
53
11
10.5
21
53
0
LINE
8
0
10
9
20
51.5
11
9
21
44.5
0
LINE
8
0
10
45
20
53.5
11
45
21
56.5
0
LINE
8
0
10
43.5
20
58
11
28.5
21
58
0
LINE
8
0
10
27
20
56.5
11
27
21
54.5
0
LINE
8
0
10
63
20
50
11
63
21
50.5
0
LINE
8
0
10
61.5
20
52
11
46.5
21
52
0
LINE
8
0
10
63
20
50
11
110.542
21
50
0
LINE
8
0
10
112.0376794
20
-26
11
112.042
21
-26
0
LINE
8
0
10
112.042
20
-26
11
112.042
21
-25.9948509
0
LINE
8
0
10
112.042
20
-25.99176
11
112.042
21
48.5
0
LINE
8
0
10
45.3469974
20
-26.5
11
75.2310868
21
-26.5
0
LINE
8
0
10
97.7736371
20
-42.9992237
11
112.0376794
21
-26
0
LINE
8
0
10
112.042
20
-25.9948509
11
112.043522
21
-25.9930371
0
LINE
8
0
10
112.043522
20
-25.9930371
11
112.042
21
-25.99176
0
LINE
8
0
10
76.1952683
20
-26.8509333
11
95.660389
21
-43.184109
0
ARC
8
0
10
-7.5
20
41.5
40
1.5
50
90
51
180
0
ARC
8
0
10
7.5
20
44.5
40
1.5
50
270
51
0
0
ARC
8
0
10
10.5
20
51.5
40
1.5
50
90
51
180
0
ARC
8
0
10
25.5
20
54.5
40
1.5
50
270
51
0
0
ARC
8
0
10
28.5
20
56.5
40
1.5
50
90
51
180
0
ARC
8
0
10
43.5
20
56.5
40
1.5
50
0
51
90
0
ARC
8
0
10
46.5
20
53.5
40
1.5
50
180
51
270
0
ARC
8
0
10
61.5
20
50.5
40
1.5
50
0
51
90
0
ARC
8
0
10
110.542
20
48.5
40
1.5
50
0
51
90
0
ARC
8
0
10
96.6245704
20
-42.0350423
40
1.5
50
229.9999988
51
319.9999988
0
ARC
8
0
10
75.2310868
20
-28
40
1.5
50
49.9999988
51
90
0
ARC
8
0
10
-8.42
20
-130.6
40
117
50
63.0167542
51
89.5551675
0
ARC
8
0
10
45.3469974
20
-25
40
1.5
50
243.0167542
51
270
0
ARC
8
0
10
-7.4999999
20
-12.1035714
40
1.5
50
180
51
269.5551675
0
ENDSEC
0
EOF