0
SECTION
2
HEADER
9
$INSUNITS
70
4
0
ENDSEC
0
SECTION
2
TABLES
0
TABLE
2
LTYPE
0
LTYPE
72
65
70
64
2
CONTINUOUS
3
______
73
0
40
0
0
ENDTAB
0
TABLE
2
LAYER
0
ENDTAB
0
ENDSEC
0
SECTION
2
ENTITIES
0
LINE
8
0
10
-8.75
20
-8.25
11
8.75
21
-8.25
0
LINE
8
0
10
8.75
20
-8.25
11
8.75
21
8.25
0
LINE
8
0
10
8.75
20
8.25
11
-8.75
21
8.25
0
LINE
8
0
10
-8.75
20
8.25
11
-8.75
21
-8.25
0
LINE
8
0
10
-8.75
20
8.75
11
8.75
21
8.75
0
LINE
8
0
10
8.75
20
8.75
11
8.75
21
25.25
0
LINE
8
0
10
8.75
20
25.25
11
-8.75
21
25.25
0
LINE
8
0
10
-8.75
20
25.25
11
-8.75
21
8.75
0
LINE
8
0
10
-8.75
20
25.75
11
8.75
21
25.75
0
LINE
8
0
10
8.75
20
25.75
11
8.75
21
42.25
0
LINE
8
0
10
8.75
20
42.25
11
-8.75
21
42.25
0
LINE
8
0
10
-8.75
20
42.25
11
-8.75
21
25.75
0
LINE
8
0
10
9.25
20
1.75
11
26.75
21
1.75
0
LINE
8
0
10
26.75
20
1.75
11
26.75
21
18.25
0
LINE
8
0
10
26.75
20
18.25
11
9.25
21
18.25
0
LINE
8
0
10
9.25
20
18.25
11
9.25
21
1.75
0
LINE
8
0
10
9.25
20
18.75
11
26.75
21
18.75
0
LINE
8
0
10
26.75
20
18.75
11
26.75
21
35.25
0
LINE
8
0
10
26.75
20
35.25
11
9.25
21
35.25
0
LINE
8
0
10
9.25
20
35.25
11
9.25
21
18.75
0
LINE
8
0
10
9.25
20
35.75
11
26.75
21
35.75
0
LINE
8
0
10
26.75
20
35.75
11
26.75
21
52.25
0
LINE
8
0
10
26.75
20
52.25
11
9.25
21
52.25
0
LINE
8
0
10
9.25
20
52.25
11
9.25
21
35.75
0
LINE
8
0
10
27.25
20
6.75
11
44.75
21
6.75
0
LINE
8
0
10
44.75
20
6.75
11
44.75
21
23.25
0
LINE
8
0
10
44.75
20
23.25
11
27.25
21
23.25
0
LINE
8
0
10
27.25
20
23.25
11
27.25
21
6.75
0
LINE
8
0
10
27.25
20
23.75
11
44.75
21
23.75
0
LINE
8
0
10
44.75
20
23.75
11
44.75
21
40.25
0
LINE
8
0
10
44.75
20
40.25
11
27.25
21
40.25
0
LINE
8
0
10
27.25
20
40.25
11
27.25
21
23.75
0
LINE
8
0
10
27.25
20
40.75
11
44.75
21
40.75
0
LINE
8
0
10
44.75
20
40.75
11
44.75
21
57.25
0
LINE
8
0
10
44.75
20
57.25
11
27.25
21
57.25
0
LINE
8
0
10
27.25
20
57.25
11
27.25
21
40.75
0
LINE
8
0
10
45.25
20
0.75
11
62.75
21
0.75
0
LINE
8
0
10
62.75
20
0.75
11
62.75
21
17.25
0
LINE
8
0
10
62.75
20
17.25
11
45.25
21
17.25
0
LINE
8
0
10
45.25
20
17.25
11
45.25
21
0.75
0
LINE
8
0
10
45.25
20
17.75
11
62.75
21
17.75
0
LINE
8
0
10
62.75
20
17.75
11
62.75
21
34.25
0
LINE
8
0
10
62.75
20
34.25
11
45.25
21
34.25
0
LINE
8
0
10
45.25
20
34.25
11
45.25
21
17.75
0
LINE
8
0
10
45.25
20
34.75
11
62.75
21
34.75
0
LINE
8
0
10
62.75
20
34.75
11
62.75
21
51.25
0
LINE
8
0
10
62.75
20
51.25
11
45.25
21
51.25
0
LINE
8
0
10
45.25
20
51.25
11
45.25
21
34.75
0
LINE
8
0
10
63.25
20
-1.25
11
80.75
21
-1.25
0
LINE
8
0
10
80.75
20
-1.25
11
80.75
21
15.25
0
LINE
8
0
10
80.75
20
15.25
11
63.25
21
15.25
0
LINE
8
0
10
63.25
20
15.25
11
63.25
21
-1.25
0
LINE
8
0
10
63.25
20
15.75
11
80.75
21
15.75
0
LINE
8
0
10
80.75
20
15.75
11
80.75
21
32.25
0
LINE
8
0
10
80.75
20
32.25
11
63.25
21
32.25
0
LINE
8
0
10
63.25
20
32.25
11
63.25
21
15.75
0
LINE
8
0
10
63.25
20
32.75
11
80.75
21
32.75
0
LINE
8
0
10
80.75
20
32.75
11
80.75
21
49.25
0
LINE
8
0
10
80.75
20
49.25
11
63.25
21
49.25
0
LINE
8
0
10
63.25
20
49.25
11
63.25
21
32.75
0
LINE
8
0
10
42.25
20
-20.25
11
59.75
21
-20.25
0
LINE
8
0
10
59.75
20
-20.25
11
59.75
21
-3.75
0
LINE
8
0
10
59.75
20
-3.75
11
42.25
21
-3.75
0
LINE
8
0
10
42.25
20
-3.75
11
42.25
21
-20.25
0
LINE
8
0
10
62.25
20
-20.25
11
79.75
21
-20.25
0
LINE
8
0
10
79.75
20
-20.25
11
79.75
21
-3.75
0
LINE
8
0
10
79.75
20
-3.75
11
62.25
21
-3.75
0
LINE
8
0
10
62.25
20
-3.75
11
62.25
21
-20.25
0
LINE
8
0
10
80.5469133
20
-25.8029308
11
100.8470911
21
-42.8368025
0
LINE
8
0
10
91.1529089
20
-13.1631975
11
111.4530867
21
-30.1970692
0
LINE
8
0
10
100.8470911
20
-42.8368025
11
111.4530867
21
-30.1970692
0
LINE
8
0
10
91.1529089
20
-13.1631975
11
80.5469133
21
-25.8029308
0
ENDSEC
0
EOF